<?xml version="1.0" encoding="utf-8"?>
<!-- Generator: Adobe Illustrator 17.0.0, SVG Export Plug-In . SVG Version: 6.00 Build 0)  -->
<!DOCTYPE svg PUBLIC "-//W3C//DTD SVG 1.1//EN" "http://www.w3.org/Graphics/SVG/1.1/DTD/svg11.dtd">
<svg version="1.1" id="Слой_1" xmlns="http://www.w3.org/2000/svg" xmlns:xlink="http://www.w3.org/1999/xlink" x="0px" y="0px"
	 width="100%" height="auto" viewBox="0 0 143.968 100" enable-background="new 0 0 143.968 100" xml:space="preserve">
<g>
	<path fill="#FFFFFF" d="M46.032,45.944c7.247,1.121,14.932-1.561,19.974-6.885c5.124-5.284,7.446-13.129,5.965-20.374
		C69.929,6.436,56.761-2.33,44.631,0.551c-7.446,1.442-13.97,6.965-16.692,14.05c-2.322,5.884-2.162,12.729,0.64,18.413
		C31.783,39.86,38.548,44.903,46.032,45.944z"/>
	<path fill="#FFFFFF" d="M101.882,40.75c5.715,0.884,11.777-1.231,15.754-5.43c4.041-4.167,5.873-10.355,4.705-16.07
		c-1.611-9.661-11.997-16.575-21.564-14.302c-5.872,1.137-11.018,5.494-13.165,11.082c-1.832,4.641-1.705,10.04,0.505,14.523
		C90.644,35.951,95.979,39.929,101.882,40.75z"/>
	<path fill="#FFFFFF" d="M135.033,53.094c-6.535-1.452-13.102-2.62-19.637-4.01c-3.663,5.368-17.649,5.4-21.28,0.032
		c-6.568,1.263-13.103,2.621-19.67,3.947c-0.273,0.93-0.547,1.858-0.82,2.787c5.713,1.134,11.432,2.231,17.132,3.498
		c2.407,7.998,4.766,16.013,7.118,24.032c19.896,0.006,41.262,0.01,46.092-0.009C141,73.269,138.064,63.166,135.033,53.094z"/>
	<path fill="#FFFFFF" d="M88.062,61.595c-5.7-1.266-11.42-2.364-17.132-3.498c-2.591-0.514-5.18-1.036-7.765-1.586
		c-4.644,6.805-22.376,6.846-26.98,0.04c-8.327,1.602-16.612,3.323-24.938,5.004C7.485,74.364,3.682,87.133,0,99.982
		c21.254,0,89.223,0.04,99.39,0c-1.406-4.786-2.807-9.571-4.21-14.355C92.828,77.607,90.469,69.593,88.062,61.595z"/>
</g>
</svg>
