<?xml version="1.0" encoding="utf-8"?>
<!-- Generator: Adobe Illustrator 17.0.0, SVG Export Plug-In . SVG Version: 6.00 Build 0)  -->
<!DOCTYPE svg PUBLIC "-//W3C//DTD SVG 1.1//EN" "http://www.w3.org/Graphics/SVG/1.1/DTD/svg11.dtd">
<svg version="1.1" id="Слой_1" xmlns="http://www.w3.org/2000/svg" xmlns:xlink="http://www.w3.org/1999/xlink" x="0px" y="0px"
	 width="100%" height="auto" viewBox="0 0 533 670.5" enable-background="new 0 0 533 670.5" xml:space="preserve">
<g>
	<path fill="#FFFFFF" d="M332.804,114.576c0,0,1.831,4.238,3.149,4.226c1.414-0.012,2.647-3.681,2.546-5.052
		s4.651-3.991,4.651-3.991s-2.747-46.708-20.855-70.691c-4.631-6.134-12.047-14.914-20.999-22.455
		c-5.455-4.595-12.701-7.8-16.847-9.29c-2.159-0.776-3.995,6.517-1.815,7.267c4.956,1.705,12.46,4.77,17.839,9.065
		c7.835,6.255,26.684,27.76,31.46,50.492C336.721,96.941,332.804,114.576,332.804,114.576z"/>
	<path fill="#202020" d="M187.209,350.5c0,0-12.299,96.569-22.5,133c-7,25-24.5,76.5-26,86.5s86-23.5,86-23.5l41-179L187.209,350.5z
		"/>
	<path fill="#FFFFFF" d="M183.376,140.5c0,0-0.412,4.598-1.667,5c-1.347,0.432-3.667-2.667-4-4
		c-0.333-1.333-5.667-2.333-5.667-2.333s-12.02-45.219-2.333-73.667c2.477-7.276,6.77-17.937,12.91-27.901
		c3.741-6.072,9.619-11.385,13.09-14.099c1.808-1.413,5.835,4.938,4,6.333c-4.173,3.172-10.339,8.433-14.103,14.196
		c-5.481,8.394-16.647,34.721-14.064,57.804C174.133,124.979,183.376,140.5,183.376,140.5z"/>
	<path fill="#202020" d="M226.459,175.75l-11.875-21.125c0,0-26.938-74.062-26.938-73.562s-5.469-28.031-5.469-28.031
		s5.516-5.016,7.516-9.016s-0.492-8.008-0.492-8.008s-1.996-11.004,0.004-12.004s-0.998-5.002-0.998-5.002l9.501-6.501
		c0,0,6.5,3,9.5,1.5s-1.5-3.5-3.5-2.5s10.5-4,17-10.5c0,0,7.5-2,13.5,2c0,0,18.5-2,21-0.5c0,0,3-2.5,4.5-2.5s18,0,19,2s23,5,24,26
		c0,0,9.5,7.5,11,23s3.5,16.5,3.5,16.5s-7.5,9-6.5,13.5s0,41.5-1.5,50.5s2,10.5,2.5,13c0,0-1.75-4.25-4.25-4.75
		s13.25,1.25,4.75,9.75c0,0-1,8,4,13c0,0,11-7.5,14-4s11,20.5,14.5,26s65,43,72.5,63c0,0,24,30,20,56.5c0,0,4,8-6.5,21.5
		c0,0,2.5,7.5-4.5,14.5c0,0-1.5,172.5-7,192s-54.5,130.5-58,138.5h-228.5c0,0-1-21.25,0-23.25s-24.5,18.125-33,12.125
		s-8.5-23.688,17-68.688c0,0-1-11.594,1-13.594s10-34.547,29-43.047c0,0,2.5-14.023,10.5-14.523s29.5-123.012,32-128.012
		s-4.5-42.006-2-43.506c0,0-5-11.003,1-18.003c0,0-2.5-61.501,29-82.501c0,0,7.5-14.501,8.5-22.001c0,0,5-16.5,8-16
		c0,0-3.5-12.5-6-13s-7-9-2.5-15.5S228.709,179,226.459,175.75z"/>
	<path fill="#FFFFFF" d="M180.021,87.625c10.781,10.781,19.938,60.625,18.938,62.375c-0.555,0.971-2.801,0.868-3.75,0.75l-9.25-7
		c-0.5-5.5-2.25-5.25-2.25-5.25c-0.833,0.333-3.667-0.5-4.833-0.667c-1.167-0.167-11.667-33.333-10.833-34.5
		c0.833-1.167,6.5-1.167,6.5-1.167s0.384,0.239,0.999,0.626c-0.661-1.784-1.098-2.044-1.083-2.793
		C174.459,100,177.623,85.227,180.021,87.625z"/>
	<path fill="#FFFFFF" d="M179.667,87.625c0,0,5.792-5.125,9.125-4.292c3.238,0.809,10.599,19.342,12.75,26.333
		c2.805,9.115,8.167,33.333,7,37.5c-1.167,4.167-8.167,3-10.333,2.5C196.042,149.167,179.667,87.625,179.667,87.625z"/>
	<path fill="#FFFFFF" d="M319.429,63.311c-6.862,13.615,0.052,63.819,1.55,65.168c0.831,0.748,2.932-0.053,3.796-0.462l6.592-9.545
		c-1.248-5.38,0.493-5.691,0.493-5.691c0.896,0.056,3.326-1.623,4.381-2.147c1.056-0.524,0.64-35.31-0.517-36.157
		c-1.157-0.847-6.538,0.928-6.538,0.928s-0.29,0.348-0.753,0.908c0.069-1.901,0.402-2.285,0.153-2.991
		C328.588,73.321,320.956,60.282,319.429,63.311z"/>
	<path fill="#FFFFFF" d="M319.766,63.2c0,0-7.105-3.053-10.01-1.218c-2.821,1.783-4.008,21.689-3.861,29.002
		c0.191,9.535,2.684,34.214,5.097,37.806c2.413,3.592,8.695,0.291,10.596-0.862C323.488,126.774,319.766,63.2,319.766,63.2z"/>
	<path fill="#FFFFFF" d="M159.126,42.917"/>
</g>
<path fill="none" stroke="#FFFFFF" stroke-miterlimit="10" d="M206,146.5c0,0-9,0,9,45s90,45,90,72s18,81,9,90s-18,36-9,45"/>
<path fill="none" stroke="#FFFFFF" stroke-miterlimit="10" d="M314,128.5c0,0,9,45,0,72s-9,54-9,63"/>
<circle fill="#FFFFFF" stroke="#FFFFFF" stroke-miterlimit="10" cx="301.5" cy="394" r="4.5"/>
<rect y="200.5" fill="#4C4C4C" width="195" height="91"/>
<rect x="96" y="291.5" fill="#4C4C4C" width="195" height="100"/>
<rect x="196" y="391.5" fill="#4C4C4C" width="337" height="116"/>
<rect y="200.5" fill="#FFFFFF" width="195" height="91"/>
<rect x="96" y="291.5" fill="#FFFFFF" width="195" height="100"/>
<rect x="96" y="291.5" fill="#FFFFFF" width="195" height="100"/>
<rect x="196" y="391.5" fill="#FFFFFF" width="337" height="116"/>
<g>
	<path fill="#0D0F0F" d="M66.688,234.627c0,2.086-0.258,3.95-0.773,5.59c-0.516,1.641-1.213,3.088-2.092,4.342
		c-0.879,1.254-1.893,2.326-3.041,3.217c-1.148,0.891-2.35,1.623-3.604,2.197c-1.254,0.575-2.52,0.99-3.797,1.248
		c-1.278,0.258-2.479,0.387-3.604,0.387l19.09,16.488H54.734L35.68,251.608h-6.574v-9.141h20.672
		c1.148-0.093,2.197-0.334,3.146-0.721s1.77-0.908,2.461-1.564c0.691-0.656,1.225-1.447,1.6-2.373
		c0.375-0.926,0.562-1.986,0.562-3.182v-5.766c0-0.515-0.065-0.908-0.193-1.178c-0.129-0.269-0.293-0.469-0.492-0.598
		c-0.199-0.128-0.41-0.205-0.633-0.229c-0.223-0.023-0.428-0.035-0.615-0.035H25.449v41.273h-9.141v-45.809
		c0-0.633,0.117-1.23,0.352-1.793c0.234-0.562,0.557-1.055,0.967-1.477c0.41-0.422,0.896-0.75,1.459-0.984
		c0.562-0.234,1.172-0.352,1.828-0.352h34.699c2.039,0,3.762,0.369,5.168,1.107s2.549,1.665,3.428,2.777
		c0.879,1.113,1.512,2.315,1.898,3.604c0.387,1.289,0.58,2.496,0.58,3.621V234.627z"/>
	<path fill="#0D0F0F" d="M121.426,268.096H88.449c-1.266,0-2.649-0.223-4.148-0.668c-1.5-0.445-2.889-1.178-4.166-2.197
		c-1.278-1.02-2.344-2.343-3.199-3.973c-0.856-1.629-1.283-3.626-1.283-5.994v-32.977c0-0.633,0.117-1.23,0.352-1.793
		c0.234-0.562,0.557-1.055,0.967-1.477c0.41-0.422,0.896-0.75,1.459-0.984c0.562-0.234,1.172-0.352,1.828-0.352h41.168v9.141H84.793
		v28.441c0,1.195,0.316,2.109,0.949,2.742s1.559,0.949,2.777,0.949h32.906V268.096z M117.312,247.495H88.449v-9.211h28.863V247.495z
		"/>
</g>
<g>
	<path fill="#0D0F0F" d="M170.149,364.34h-32.977c-0.844,0-1.752-0.1-2.725-0.299c-0.973-0.199-1.934-0.51-2.883-0.932
		s-1.858-0.967-2.725-1.635c-0.867-0.668-1.635-1.477-2.303-2.426s-1.201-2.051-1.6-3.305c-0.399-1.254-0.598-2.666-0.598-4.236
		v-24.75c0-0.844,0.1-1.752,0.299-2.725c0.199-0.972,0.51-1.934,0.932-2.883s0.972-1.857,1.652-2.725
		c0.68-0.867,1.494-1.635,2.443-2.303s2.044-1.201,3.287-1.6c1.242-0.398,2.648-0.598,4.219-0.598h32.977v9.141h-32.977
		c-1.195,0-2.109,0.316-2.742,0.949s-0.949,1.57-0.949,2.812v24.68c0,1.172,0.322,2.08,0.967,2.725
		c0.645,0.645,1.552,0.967,2.725,0.967h32.977V364.34z"/>
	<path fill="#0D0F0F" d="M230.969,343.949c0,3.07-0.527,5.895-1.582,8.473s-2.52,4.805-4.395,6.68
		c-1.875,1.875-4.096,3.334-6.662,4.377s-5.361,1.564-8.385,1.564h-12.375c-3.023,0-5.824-0.521-8.402-1.564
		c-2.579-1.043-4.805-2.502-6.68-4.377c-1.875-1.875-3.346-4.102-4.412-6.68c-1.067-2.578-1.6-5.402-1.6-8.473v-9.633
		c0-3.046,0.533-5.865,1.6-8.455c1.066-2.589,2.537-4.816,4.412-6.68c1.875-1.863,4.101-3.322,6.68-4.377
		c2.578-1.055,5.379-1.582,8.402-1.582h12.375c3.023,0,5.818,0.527,8.385,1.582s4.787,2.514,6.662,4.377
		c1.875,1.863,3.34,4.09,4.395,6.68c1.055,2.59,1.582,5.409,1.582,8.455V343.949z M221.829,334.316c0-1.805-0.287-3.439-0.861-4.904
		c-0.575-1.464-1.383-2.719-2.426-3.762c-1.043-1.042-2.297-1.851-3.762-2.426c-1.465-0.574-3.076-0.861-4.834-0.861h-12.375
		c-1.781,0-3.405,0.287-4.869,0.861c-1.465,0.575-2.725,1.383-3.779,2.426c-1.055,1.043-1.869,2.297-2.443,3.762
		c-0.575,1.465-0.861,3.1-0.861,4.904v9.633c0,1.805,0.287,3.439,0.861,4.904c0.574,1.465,1.389,2.719,2.443,3.762
		s2.314,1.852,3.779,2.426c1.464,0.574,3.088,0.861,4.869,0.861h12.305c1.781,0,3.404-0.287,4.869-0.861
		c1.464-0.574,2.725-1.383,3.779-2.426s1.869-2.297,2.443-3.762c0.574-1.465,0.861-3.1,0.861-4.904V334.316z"/>
</g>
<g>
	<path fill="#0D0F0F" d="M287.082,479.44c0,0.656-0.123,1.266-0.369,1.828s-0.575,1.05-0.984,1.459
		c-0.41,0.41-0.896,0.732-1.459,0.967s-1.16,0.352-1.793,0.352c-0.562,0-1.131-0.105-1.705-0.316
		c-0.575-0.211-1.085-0.55-1.529-1.02l-33.399-34.875v35.508h-9.141v-46.512c0-0.937,0.264-1.787,0.791-2.549
		c0.527-0.761,1.201-1.33,2.021-1.705c0.867-0.352,1.758-0.439,2.672-0.264s1.699,0.604,2.355,1.283l33.399,34.84v-35.508h9.141
		V479.44z"/>
	<path fill="#0D0F0F" d="M329.658,452.707h-34.492v-12.598c0-0.646,0.074-1.331,0.223-2.056s0.38-1.444,0.694-2.16
		s0.721-1.397,1.218-2.043c0.498-0.646,1.1-1.218,1.808-1.716c0.707-0.497,1.522-0.895,2.448-1.191
		c0.925-0.297,1.973-0.445,3.143-0.445h15.348c0.925,0,1.61-0.231,2.056-0.694c0.445-0.462,0.668-1.139,0.668-2.029v-3.012
		c0-0.925-0.228-1.624-0.682-2.095c-0.454-0.472-1.117-0.708-1.99-0.708H298.23v-6.809h21.868c1.152,0,2.191,0.148,3.117,0.445
		c0.925,0.297,1.741,0.693,2.448,1.191c0.707,0.497,1.313,1.069,1.82,1.715c0.506,0.646,0.921,1.323,1.244,2.03
		c0.322,0.707,0.559,1.423,0.707,2.147s0.223,1.401,0.223,2.029v3.064c0,1.764-0.319,3.252-0.956,4.465
		c-0.638,1.214-1.437,2.2-2.396,2.96s-1.995,1.31-3.104,1.649c-1.108,0.341-2.144,0.511-3.104,0.511h-15.399
		c-0.559,0-1.004,0.079-1.336,0.236c-0.331,0.157-0.589,0.366-0.772,0.628c-0.183,0.263-0.318,0.56-0.405,0.891
		c-0.088,0.332-0.157,0.664-0.21,0.995v5.788h27.683V452.707z"/>
	<path fill="#0D0F0F" d="M383.619,483.343h-32.977c-1.266,0-2.648-0.223-4.148-0.668c-1.5-0.444-2.889-1.178-4.166-2.197
		s-2.344-2.343-3.199-3.973c-0.855-1.629-1.283-3.626-1.283-5.994v-32.977c0-0.633,0.117-1.23,0.352-1.793s0.557-1.055,0.967-1.477
		s0.896-0.75,1.459-0.984c0.562-0.233,1.172-0.352,1.828-0.352h41.168v9.141h-36.633v28.441c0,1.195,0.316,2.109,0.949,2.742
		s1.559,0.949,2.777,0.949h32.906V483.343z M379.506,462.741h-28.863v-9.211h28.863V462.741z"/>
	<path fill="#0D0F0F" d="M437.268,483.343h-32.977c-0.844,0-1.752-0.1-2.725-0.299c-0.973-0.198-1.934-0.51-2.883-0.932
		s-1.857-0.967-2.725-1.635s-1.635-1.477-2.303-2.426s-1.201-2.051-1.6-3.305c-0.398-1.253-0.598-2.666-0.598-4.236v-24.75
		c0-0.844,0.1-1.752,0.299-2.725c0.199-0.972,0.51-1.934,0.932-2.883s0.973-1.857,1.652-2.725c0.68-0.866,1.494-1.635,2.443-2.303
		s2.045-1.2,3.287-1.6c1.242-0.398,2.648-0.598,4.219-0.598h32.977v9.141h-32.977c-1.195,0-2.109,0.316-2.742,0.949
		s-0.949,1.57-0.949,2.812v24.68c0,1.173,0.322,2.08,0.967,2.725c0.645,0.646,1.553,0.967,2.725,0.967h32.977V483.343z"/>
	<path fill="#0D0F0F" d="M491.479,442.069h-20.145v41.273h-9.141v-41.273h-20.18v-9.141h49.465V442.069z"/>
</g>
</svg>
