<?xml version="1.0" encoding="utf-8"?>
<!-- Generator: Adobe Illustrator 17.0.0, SVG Export Plug-In . SVG Version: 6.00 Build 0)  -->
<!DOCTYPE svg PUBLIC "-//W3C//DTD SVG 1.1//EN" "http://www.w3.org/Graphics/SVG/1.1/DTD/svg11.dtd">
<svg version="1.1" id="Слой_1" xmlns="http://www.w3.org/2000/svg" xmlns:xlink="http://www.w3.org/1999/xlink" x="0px" y="0px"
	 width="100%" height="auto" viewBox="0 0 99.899 100" enable-background="new 0 0 99.899 100" xml:space="preserve">
<g>
	<path fill="#FFFFFF" d="M68.426,35.969h22.481c4.496,0,8.992-4.496,8.992-8.992V8.992C99.899,4.496,95.403,0,90.907,0H54.937
		c-4.496,0-8.992,4.496-8.992,8.992v17.984c0,4.496,4.496,8.992,8.992,8.992v13.488L68.426,35.969z"/>
	<g>
		<path fill="#FFFFFF" d="M57.387,75.511c-6.219-1.149-12.372-2.501-18.592-3.684c-3.448,5.071-16.734,5.172-20.081,0
			C12.46,73.044,6.24,74.295,0.02,75.58C0,83.72,0,91.86,0,100h57.429C57.432,91.841,57.427,83.677,57.387,75.511z"/>
	</g>
	<path fill="#FFFFFF" d="M30.953,63.888c6.997-0.799,13.095-6.497,14.394-13.428c1.166-5.465-0.634-11.429-4.598-15.327
		c-3.499-3.599-8.663-5.431-13.661-4.965c-6.464,0.6-12.362,5.131-14.394,11.329c-2.066,5.698-0.699,12.495,3.433,16.926
		C19.758,62.554,25.522,64.687,30.953,63.888z"/>
</g>
</svg>
