<?xml version="1.0" encoding="utf-8"?>
<!-- Generator: Adobe Illustrator 17.0.0, SVG Export Plug-In . SVG Version: 6.00 Build 0)  -->
<!DOCTYPE svg PUBLIC "-//W3C//DTD SVG 1.1//EN" "http://www.w3.org/Graphics/SVG/1.1/DTD/svg11.dtd">
<svg version="1.1" xmlns="http://www.w3.org/2000/svg" xmlns:xlink="http://www.w3.org/1999/xlink" x="0px" y="0px"
	 width="40px" height="40px" viewBox="0 0 20.344 22.396" enable-background="new 0 0 20.344 22.396" xml:space="preserve">
<g id="Слой_1">
	<g>
		<path fill="#101111" d="M12.662,8.353c0,0,0.134,0.309,0.23,0.308c0.103-0.001,0.193-0.268,0.186-0.368
			c-0.007-0.1,0.339-0.291,0.339-0.291s-0.2-3.405-1.52-5.154c-0.338-0.447-0.878-1.087-1.531-1.637
			C9.967,0.876,9.439,0.643,9.137,0.534c-0.157-0.057-0.291,0.475-0.132,0.53c0.361,0.124,0.908,0.348,1.301,0.661
			c0.571,0.456,1.945,2.024,2.294,3.681C12.948,7.067,12.662,8.353,12.662,8.353z"/>
		<path fill="#101111" d="M1.768,10.243c0,0-0.03,0.335-0.122,0.365c-0.098,0.031-0.267-0.194-0.292-0.292s-0.413-0.17-0.413-0.17
			s-0.876-3.297-0.17-5.371c0.181-0.53,0.494-1.308,0.941-2.034c0.273-0.443,0.701-0.83,0.954-1.028
			c0.132-0.103,0.425,0.36,0.292,0.462C2.655,2.406,2.205,2.79,1.931,3.21c-0.4,0.612-1.214,2.531-1.025,4.214
			C1.094,9.112,1.768,10.243,1.768,10.243z"/>
		<path fill="#FDF9FA" d="M1.766,22.396c0,0,0.172-2.821,2.469-4.352c0,0,0.547-1.057,0.62-1.604c0,0,0.365-1.203,0.583-1.167
			c0,0-0.255-0.911-0.437-0.948s-0.51-0.656-0.182-1.13s0.255-0.146,0.091-0.383l-0.866-1.54c0,0-1.964-5.399-1.964-5.363
			S1.681,3.866,1.681,3.866s0.402-0.366,0.548-0.657S2.193,2.625,2.193,2.625s-0.146-0.802,0-0.875S2.12,1.385,2.12,1.385
			l0.693-0.474c0,0,0.474,0.219,0.693,0.109C3.724,0.911,3.396,0.766,3.25,0.838S4.016,0.547,4.49,0.073
			c0,0,0.547-0.146,0.984,0.146c0,0,1.349-0.146,1.531-0.036c0,0,0.219-0.182,0.328-0.182s1.312,0,1.385,0.146
			s1.677,0.365,1.75,1.896c0,0,0.693,0.547,0.802,1.677s0.255,1.203,0.255,1.203s-0.547,0.656-0.474,0.984s0,3.026-0.109,3.682
			s0.146,0.765,0.182,0.948c0,0-0.128-0.31-0.31-0.346s0.966,0.091,0.346,0.711c0,0-0.073,0.583,0.292,0.948
			c0,0,0.802-0.547,1.021-0.292s0.802,1.495,1.057,1.896s4.739,3.135,5.286,4.593c0,0,1.788,2.42,1.497,4.352"/>
		<path fill="#101111" d="M1.523,6.388c0.786,0.786,1.454,4.42,1.381,4.547c-0.04,0.071-0.204,0.063-0.273,0.055l-0.674-0.51
			c-0.036-0.401-0.164-0.383-0.164-0.383c-0.061,0.024-0.267-0.036-0.352-0.049c-0.085-0.012-0.851-2.43-0.79-2.515
			c0.061-0.085,0.474-0.085,0.474-0.085s0.028,0.017,0.073,0.046c-0.048-0.13-0.08-0.149-0.079-0.204
			C1.118,7.29,1.349,6.213,1.523,6.388z"/>
		<path fill="#101111" d="M1.498,6.388c0,0,0.422-0.374,0.665-0.313c0.236,0.059,0.773,1.41,0.93,1.92
			c0.204,0.665,0.595,2.43,0.51,2.734s-0.595,0.219-0.753,0.182S1.498,6.388,1.498,6.388z"/>
		<path fill="#101111" d="M11.687,4.616c-0.5,0.993,0.004,4.653,0.113,4.751c0.061,0.055,0.214-0.004,0.277-0.034l0.481-0.696
			c-0.091-0.392,0.036-0.415,0.036-0.415c0.065,0.004,0.242-0.118,0.319-0.157c0.077-0.038,0.047-2.574-0.038-2.636
			c-0.084-0.062-0.477,0.068-0.477,0.068s-0.021,0.025-0.055,0.066c0.005-0.139,0.029-0.167,0.011-0.218
			C12.355,5.345,11.798,4.395,11.687,4.616z"/>
		<path fill="#101111" d="M11.711,4.608c0,0-0.518-0.223-0.73-0.089C10.776,4.649,10.689,6.1,10.7,6.633
			c0.014,0.695,0.196,2.494,0.372,2.756c0.176,0.262,0.634,0.021,0.773-0.063C11.983,9.242,11.711,4.608,11.711,4.608z"/>
		<path fill="#101111" d="M0,3.129"/>
		<path fill="#9B5C44" d="M2.64,21.229"/>
	</g>
</g>
<g id="Слой_2">
</g>
</svg>
