<?xml version="1.0" encoding="utf-8"?>
<!-- Generator: Adobe Illustrator 17.0.0, SVG Export Plug-In . SVG Version: 6.00 Build 0)  -->
<!DOCTYPE svg PUBLIC "-//W3C//DTD SVG 1.1//EN" "http://www.w3.org/Graphics/SVG/1.1/DTD/svg11.dtd">
<svg version="1.1" id="Слой_1" xmlns="http://www.w3.org/2000/svg" xmlns:xlink="http://www.w3.org/1999/xlink" x="0px" y="0px"
	 width="100%" height="auto" viewBox="0 0 100.013 100" enable-background="new 0 0 100.013 100" xml:space="preserve">
<g>
	<path fill="#FFFFFF" d="M94.938,50.764c1.7-0.255,3.402-0.453,5.074-0.679c0-1.786-0.056-3.6-0.255-5.414
		c-1.7-0.056-3.402-0.028-5.131-0.056c-0.17-1.077-0.31-2.183-0.425-3.288c1.587-0.51,3.147-1.077,4.706-1.559
		c-0.256-1.814-0.794-3.543-1.361-5.272c-1.673,0.312-3.315,0.624-4.988,0.936c-0.426-1.021-0.823-2.041-1.133-3.118
		c1.474-0.794,2.891-1.701,4.336-2.552c-0.709-1.672-1.586-3.259-2.467-4.847c-1.558,0.652-3.116,1.36-4.705,2.013
		c-0.566-0.907-1.161-1.842-1.757-2.721c1.191-1.219,2.494-2.325,3.742-3.487c-1.05-1.473-2.212-2.863-3.402-4.223
		c-1.446,0.963-2.834,1.955-4.252,2.919c-0.765-0.737-1.53-1.53-2.295-2.296c0.963-1.417,1.984-2.806,2.948-4.252
		c-1.389-1.162-2.779-2.324-4.223-3.373c-1.162,1.247-2.268,2.522-3.487,3.741c-0.907-0.595-1.813-1.191-2.721-1.786
		c0.623-1.587,1.36-3.119,1.956-4.733c-1.56-0.907-3.174-1.701-4.82-2.466c-0.878,1.474-1.728,2.947-2.636,4.421
		c-1.021-0.397-2.04-0.794-3.06-1.191c0.339-1.672,0.708-3.345,0.907-5.045c-1.7-0.538-3.402-0.992-5.16-1.389
		c-0.538,1.587-1.105,3.175-1.615,4.79c-1.078-0.085-2.154-0.255-3.26-0.425c-0.028-1.729,0-3.458-0.084-5.159
		C53.556,0.114,51.742,0.028,49.956,0c-0.227,1.644-0.454,3.317-0.596,5.017c-1.105,0.114-2.182,0.228-3.287,0.228
		c-0.425-1.645-0.793-3.318-1.19-4.989c-1.786,0.199-3.572,0.482-5.33,0.851c0.142,1.7,0.284,3.401,0.426,5.073
		c-1.048,0.341-2.097,0.624-3.175,0.823c-0.736-1.531-1.416-3.062-2.125-4.592c-1.729,0.538-3.372,1.191-5.046,1.9
		c0.426,1.644,0.993,3.259,1.446,4.903c-0.964,0.51-1.928,0.992-2.92,1.502c-1.049-1.332-2.041-2.749-3.061-4.081
		c-1.56,0.879-3.033,1.899-4.507,2.919c0.737,1.531,1.615,3.005,2.438,4.479c-0.823,0.737-1.672,1.445-2.523,2.125
		c-1.333-1.105-2.607-2.267-3.912-3.373c-1.276,1.276-2.553,2.523-3.798,3.798c1.105,1.305,2.267,2.581,3.345,3.913
		c-0.681,0.851-1.362,1.701-2.071,2.523c-1.501-0.822-2.975-1.672-4.477-2.438c-1.049,1.446-2.07,2.947-2.948,4.507
		c1.332,1.049,2.721,2.012,4.081,3.061c-0.51,0.963-0.878,1.984-1.529,2.834c-1.644-0.255-3.147-1.02-4.763-1.303
		c-0.963,1.502-1.388,3.316-2.012,4.988c1.531,0.71,3.062,1.389,4.592,2.126c-0.228,1.078-0.511,2.154-0.823,3.203
		C4.49,39.853,2.79,39.683,1.118,39.54c-0.396,1.786-0.708,3.571-0.85,5.386c1.672,0.368,3.345,0.708,4.99,1.133
		c-0.03,1.077-0.086,2.184-0.171,3.289c-1.701,0.17-3.401,0.396-5.073,0.595c-0.058,1.813,0.085,3.628,0.255,5.413
		c1.729,0.056,3.43,0.056,5.159,0.114c0.142,1.076,0.312,2.155,0.425,3.259c-1.616,0.51-3.175,1.049-4.763,1.615
		c0.34,1.758,0.766,3.514,1.39,5.216c1.672-0.283,3.344-0.653,5.017-0.935c0.397,1.021,0.793,2.013,1.191,3.033
		c-1.473,0.907-2.947,1.757-4.421,2.608c0.766,1.644,1.53,3.288,2.466,4.847c1.558-0.652,3.118-1.333,4.705-1.984
		c0.596,0.906,1.19,1.814,1.785,2.749c-1.247,1.161-2.523,2.296-3.742,3.486c1.021,1.474,2.212,2.862,3.401,4.196
		c1.418-0.965,2.807-1.956,4.225-2.921c0.633,0.634,1.267,1.268,1.901,1.902c0.131,0.132,0.262,0.262,0.394,0.394
		c-0.13,0.192-0.263,0.38-0.394,0.57c-0.839,1.22-1.692,2.428-2.526,3.654c0.818,0.749,1.653,1.48,2.526,2.162
		c0.548,0.427,1.108,0.84,1.697,1.211c1.163-1.246,2.297-2.522,3.487-3.714c0.907,0.597,1.814,1.163,2.693,1.786
		c-0.625,1.56-1.333,3.119-1.956,4.705c1.558,0.936,3.175,1.759,4.847,2.438c0.85-1.444,1.757-2.863,2.551-4.364
		c0.991,0.368,2.041,0.651,2.947,1.189c0.029,1.7-0.595,3.345-0.821,5.018c0.487,0.159,0.977,0.307,1.469,0.449
		c0.711,0.204,1.428,0.39,2.148,0.557c0.55,0.128,1.1,0.248,1.655,0.353c0.567-1.558,1.076-3.146,1.615-4.733
		c1.106,0.086,2.183,0.255,3.288,0.398c0.029,1.728,0,3.456,0.057,5.186c1.785,0.14,3.601,0.199,5.414,0.199
		c0.227-1.673,0.453-3.317,0.625-4.99c1.077-0.083,2.182-0.141,3.287-0.199c0.397,1.645,0.738,3.289,1.105,4.933
		c1.814-0.141,3.601-0.453,5.358-0.794c-0.17-1.671-0.226-3.373-0.453-5.044c0.641-0.185,1.283-0.356,1.923-0.516
		c0.436-0.108,0.871-0.215,1.308-0.306c0.268,0.547,0.525,1.101,0.784,1.655c0.452,0.965,0.901,1.935,1.37,2.909
		c1.701-0.596,3.43-1.22,5.046-2.012c-0.511-1.587-1.021-3.204-1.503-4.819c0.992-0.51,1.957-0.992,2.948-1.502
		c1.02,1.36,2.011,2.748,3.061,4.082c1.531-0.907,3.062-1.87,4.507-2.92c-0.765-1.529-1.587-3.004-2.466-4.478
		c0.85-0.709,1.7-1.418,2.579-2.098c0.482,0.409,0.956,0.829,1.429,1.251c0.808,0.72,1.614,1.443,2.454,2.123
		c1.276-1.276,2.522-2.552,3.798-3.827c-1.106-1.304-2.24-2.579-3.346-3.883c0.682-0.88,1.362-1.701,2.1-2.551
		c1.474,0.85,2.947,1.672,4.449,2.466c1.049-1.473,2.013-2.976,2.948-4.506c-1.36-1.076-2.749-2.04-4.11-3.089
		c0.511-0.993,1.021-1.956,1.532-2.92c1.614,0.482,3.23,0.992,4.817,1.502c0.764-1.672,1.417-3.373,1.985-5.073
		c-1.474-0.822-3.232-1.218-4.536-2.325c0.114-1.049,0.481-2.012,0.793-3.004c1.673,0.199,3.374,0.283,5.074,0.425
		c0.312-1.757,0.623-3.514,0.822-5.301c-1.644-0.424-3.315-0.764-4.961-1.19C94.825,52.919,94.882,51.843,94.938,50.764z
		 M81.006,67.779c-3.867,6.646-9.824,11.932-16.972,14.938c-0.686,0.288-1.385,0.549-2.092,0.795
		c-3.639,1.264-7.543,1.961-11.609,1.961c-4.308,0-8.44-0.774-12.264-2.188c-0.728-0.27-1.443-0.57-2.148-0.885
		c-7.241-3.233-13.205-8.82-16.914-15.787c-2.639-4.958-4.141-10.61-4.141-16.608c0-19.557,15.911-35.468,35.468-35.468
		s35.468,15.911,35.468,35.468C85.801,56.479,84.048,62.548,81.006,67.779z"/>
	<g>
		<path fill="#FFFFFF" d="M51.675,48.651c5.22-0.597,9.769-4.848,10.739-10.018c0.87-4.077-0.473-8.526-3.43-11.434
			c-2.61-2.685-6.463-4.052-10.192-3.704c-4.822,0.447-9.222,3.828-10.739,8.452c-1.541,4.251-0.522,9.321,2.561,12.628
			C43.323,47.657,47.623,49.248,51.675,48.651z"/>
		<path fill="#FFFFFF" d="M36,72.915c1.565,0.876,3.22,1.606,4.949,2.179c2.846,0.945,5.887,1.463,9.051,1.463
			c3.179,0,6.235-0.524,9.094-1.477c1.727-0.576,3.38-1.309,4.945-2.188c2.647-1.485,5.032-3.38,7.077-5.594
			c-0.004-3.373-0.011-6.747-0.027-10.122c-4.573-0.845-9.098-1.839-13.671-2.709c-2.536,3.728-12.305,3.803-14.766,0
			c-4.599,0.894-9.172,1.814-13.746,2.759c-0.008,3.362-0.007,6.724-0.008,10.086C30.948,69.532,33.343,71.43,36,72.915z"/>
	</g>
</g>
</svg>
